<svg width="64" height="64" viewBox="0 0 64 64" fill="none" xmlns="http://www.w3.org/2000/svg">
<path d="M14 27.527C14 17.8142 21.0971 9.76082 30.3974 8.27015C31.2505 8.1389 32.0006 8.83267 32.0006 9.70457V15.6391C32.0006 16.4267 32.6099 17.0735 33.3787 17.1861C42.7821 18.5736 50.0011 26.6832 50.0011 36.471C50.0011 46.1838 42.904 54.2372 33.6037 55.7279C32.7412 55.8685 32.0006 55.1747 32.0006 54.3028V48.3683C32.0006 47.5807 31.3912 46.9338 30.6224 46.8213C21.219 45.4244 14 37.3148 14 27.527ZM41.0008 32.0271C41.0008 29.6401 40.0526 27.3509 38.3647 25.663C36.6768 23.9751 34.3876 23.0269 32.0006 23.0269C29.6135 23.0269 27.3243 23.9751 25.6364 25.663C23.9485 27.3509 23.0003 29.6401 23.0003 32.0271C23.0003 34.4142 23.9485 36.7034 25.6364 38.3913C27.3243 40.0792 29.6135 41.0274 32.0006 41.0274C34.3876 41.0274 36.6768 40.0792 38.3647 38.3913C40.0526 36.7034 41.0008 34.4142 41.0008 32.0271ZM32.0006 29.027C32.7962 29.027 33.5593 29.3431 34.1219 29.9058C34.6846 30.4684 35.0006 31.2315 35.0006 32.0271C35.0006 32.8228 34.6846 33.5859 34.1219 34.1485C33.5593 34.7111 32.7962 35.0272 32.0006 35.0272C31.2049 35.0272 30.4418 34.7111 29.8792 34.1485C29.3165 33.5859 29.0005 32.8228 29.0005 32.0271C29.0005 31.2315 29.3165 30.4684 29.8792 29.9058C30.4418 29.3431 31.2049 29.027 32.0006 29.027Z" fill="white"/>
</svg>
